<?xml version="1.0"?>
<svg xmlns="http://www.w3.org/2000/svg" width="44" version="1.1" height="44" viewBox="0 0 44 44" baseProfile="tiny" xmlns:xlink="http://www.w3.org/1999/xlink" id="svg2">
 <metadata id="metadata18"/>
 <defs id="defs16"/>
 <g id="g3" transform="matrix(0.18308778,0,0,0.18308778,6.6100946,3.2385199)">
  <path style="fill:#006225" id="path5" d="M 44.304694,-1.166989 C 42.35001,-1.513189 40.440783,-1.597057 38.595197,-1.441023 34.19319,-1.131436 29.787914,-0.79856996 25.385168,-0.47361296 13.87526,0.51330204 5.1291836,10.673057 5.1291836,24.706355 l 0,165.493425 12.9009174,12.8728 26.247318,-204.228841 0.02727,-0.01071 z"/>
  <path style="fill:#80c342" id="path7" d="m 163.68591,154.51717 c 0,12.19016 -7.04596,23.47336 -15.97387,25.13121 L 18.066467,203.01445 V 23.770541 c 0,-16.30554 12.128134,-27.500971 26.265502,-24.994678 L 163.7041,19.762421 V 154.53668 z"/>
  <path style="fill:#006225" id="path11" d="m 145.95737,77.436444 -11.78265,-0.583177 0,0.271109 6.31408,0.312068 5.46948,0 z"/>
  <path style="fill:#006225" id="path13" d="m 136.59307,130.72202 c 0.60004,0.31986 1.30009,0.4642 2.13742,0.4642 0.14638,0 0.29911,-0.004 0.45185,-0.0156 2.31836,-0.14434 4.83672,-0.90988 7.58509,-2.2508 h -5.46857 c -1.65558,0.81138 -3.21114,1.42088 -4.70579,1.80219 z"/>
  <path style="fill:#ff0000" id="path17" d="m 87.998708,127.60134 c 2.137426,-5.90101 3.192045,-17.46605 3.192045,-34.737047 0,-15.496115 -1.04371,-26.155178 -3.167497,-31.996697 -2.123787,-5.8776 -5.302195,-9.05094 -9.564317,-9.450778 -0.326386,-0.03023 -0.649136,-0.04973 -0.961885,-0.04973 -3.945735,0 -6.982315,2.472161 -9.100648,7.435989 -2.291071,5.4056 -3.448427,16.617608 -3.448427,33.586293 0,16.40306 1.125535,28.03733 3.394787,34.86382 2.141971,6.50661 5.344926,9.72871 9.546133,9.72871 0.188195,0 0.372754,-0.008 0.564586,-0.0185 4.212117,-0.28574 7.383252,-3.40935 9.537041,-9.36398 m 16.346624,3.65703 c -3.74301,9.46639 -9.446133,15.66191 -17.264871,18.52904 0.788238,4.3387 1.978322,7.25654 3.565709,8.79542 1.228269,1.18099 3.12113,1.77586 5.656765,1.77586 0.73187,0 1.516472,-0.0536 2.354713,-0.1531 v 12.79478 l -5.419477,0.76261 c -1.598295,0.2243 -3.114767,0.3345 -4.549414,0.3345 -4.743974,0 -8.586974,-1.23364 -11.473542,-3.7292 -3.824817,-3.29525 -6.644109,-9.64876 -8.452419,-19.05564 -8.306045,-1.89679 -14.782869,-7.5618 -19.265005,-17.06622 -4.549415,-9.65654 -6.865034,-23.7854 -6.865034,-42.265668 0,-19.923575 3.167498,-34.629768 9.400668,-43.952794 5.263101,-7.869958 12.600895,-11.741548 21.837915,-11.741548 1.481015,0 3.008396,0.09947 4.584872,0.297439 10.864408,1.340916 18.746787,6.842086 23.87442,16.373805 5.03218,9.324975 7.50417,22.693178 7.50417,40.237237 0,16.071489 -1.8183,28.719989 -5.49402,38.052759 z m 19.34591,-88.001147 10.47348,1.207312 0,19.709029 11.78266,0.891344 0,12.365686 -11.78266,-0.583178 0,45.181564 c 0,3.93205 0.40457,6.46077 1.21827,7.59592 0.72732,1.04055 1.86012,1.55448 3.37296,1.55448 0.14638,0 0.29911,-0.004 0.45185,-0.0156 2.31834,-0.14433 4.83671,-0.90987 7.58509,-2.25079 v 11.36122 c -4.66942,2.20203 -9.25521,3.50881 -13.74643,3.92035 -0.65278,0.0536 -1.28192,0.0839 -1.88923,0.0839 -4.07301,0 -7.18778,-1.26875 -9.31884,-3.83648 -2.48201,-2.97538 -3.71845,-7.75197 -3.71845,-14.30636 V 76.046767 l -5.6604,-0.277935 V 62.515704 l 6.89684,0.533441 4.33941,-19.796799 z"/>
  <path style="fill:#006225" id="path19" d="m 96.317482,160.36844 c 0.735507,0 1.520108,-0.0536 2.354713,-0.1531 h -4.396677 c 0.61459,0.10332 1.321003,0.1531 2.041964,0.1531 z"/>
  <path style="fill:#006225" id="path21" d="m 82.271029,60.877348 c 2.123788,5.848345 3.167498,16.500583 3.167498,31.996698 0,17.261244 -1.05462,28.837004 -3.192955,34.737054 -1.72194,4.75804 -4.115747,7.70611 -7.148689,8.84516 0.877335,0.35888 1.811038,0.53734 2.798381,0.53734 0.188195,0 0.372753,-0.008 0.564585,-0.0185 4.212118,-0.28573 7.383251,-3.40934 9.537042,-9.36397 2.137424,-5.90102 3.192045,-17.46605 3.192045,-34.737053 0,-15.496115 -1.043712,-26.15518 -3.167499,-31.996698 -2.123787,-5.877602 -5.302195,-9.05094 -9.564315,-9.450777 -0.326388,-0.03023 -0.649137,-0.04974 -0.961887,-0.04974 -0.99098,0 -1.924682,0.156034 -2.802018,0.469077 h -0.0037 c 3.27387,1.093211 5.799503,4.110517 7.578721,9.031436 z M 80.139968,172.34405 c -0.102731,-0.0488 -0.206378,-0.10233 -0.305476,-0.15604 -0.01086,-0.004 -0.0209,-0.0113 -0.03182,-0.0147 -0.09273,-0.0497 -0.188195,-0.10332 -0.280929,-0.1531 -0.01728,-0.0113 -0.03546,-0.0185 -0.05273,-0.0303 -0.08183,-0.0498 -0.167286,-0.0956 -0.252746,-0.14432 -0.02454,-0.0156 -0.0491,-0.0351 -0.07819,-0.0498 -0.07455,-0.042 -0.149101,-0.0878 -0.220015,-0.13362 -0.03546,-0.0224 -0.07091,-0.0458 -0.10273,-0.0682 -0.06364,-0.0381 -0.131827,-0.0799 -0.195469,-0.12193 -0.04273,-0.0302 -0.08546,-0.0575 -0.127281,-0.0878 -0.05365,-0.038 -0.107277,-0.0722 -0.160012,-0.11022 -0.05365,-0.0381 -0.10364,-0.0732 -0.152738,-0.11122 -0.04637,-0.0302 -0.09273,-0.0644 -0.135463,-0.0946 -0.06001,-0.0458 -0.120011,-0.0916 -0.177286,-0.13362 -0.03546,-0.0264 -0.07091,-0.0536 -0.102731,-0.0799 -0.07091,-0.0536 -0.139101,-0.11023 -0.210014,-0.16774 -0.0209,-0.0156 -0.04546,-0.0341 -0.07091,-0.0536 -0.0891,-0.0761 -0.180921,-0.15214 -0.270018,-0.22821 -3.824818,-3.29525 -6.644109,-9.64874 -8.452419,-19.05564 -8.306045,-1.89679 -14.782869,-7.56178 -19.265006,-17.0662 -4.549414,-9.65654 -6.865033,-23.78542 -6.865033,-42.265678 0,-19.923575 3.167498,-34.629768 9.400668,-43.952792 5.263102,-7.86996 12.600896,-11.74155 21.837915,-11.74155 h -5.774046 c -9.227928,0.0078 -16.564813,3.878417 -21.819733,11.74155 -6.232261,9.32595 -9.400669,24.029217 -9.400669,43.952792 0,18.480258 2.315619,32.611088 6.865035,42.265678 4.485773,9.50831 10.955324,15.17429 19.265005,17.0662 1.80831,9.40203 4.627602,15.75942 8.452419,19.05564 2.887478,2.49557 6.730478,3.72921 11.473542,3.72921 0.0891,0 0.180923,0 0.27002,-0.004 h 5.035812 c -3.096583,-0.0488 -5.80314,-0.64365 -8.096939,-1.78269 l -0.0073,-0.004 z m 41.724792,-31.86991 c -2.482,-2.97538 -3.71845,-7.75197 -3.71845,-14.30637 V 76.0809 l -5.6604,-0.277935 V 62.549836 h -5.46948 v 2.959768 c 0.79187,3.191868 1.41373,6.650944 1.87559,10.376253 l 3.78572,0.187241 v 50.086882 c 0,6.55634 1.24281,11.33196 3.71845,14.30635 2.13014,2.56773 5.24128,3.83648 9.31883,3.83648 h 5.46857 c -4.07301,0 -7.18778,-1.26875 -9.31883,-3.83648 z m 1.85739,-97.189611 -5.46947,0 -4.24394,19.387209 5.37402,0.411539 4.33939,-19.796799 z"/>
 </g>
</svg>
