<?xml version="1.0"?>
<!-- Author: Rick Pirroni -->
<!-- Converted with SVG Converter - Version 0.9.5 (Compiled Mon May 30 09:08:51 2011) - Copyright (C) 2011 Nokia -->
<svg xmlns="http://www.w3.org/2000/svg" width="96px" x="0px" version="1.1" y="0px" height="96px" viewBox="0 0 96 96" xmlns:xlink="http://www.w3.org/1999/xlink" baseProfile="tiny" xml:space="preserve">
 <g id="DO_NOT_EDIT_-_BOUNDING_BOX">
  <rect width="96" fill="none" height="96" id="BOUNDING_BOX"/>
 </g>
 <g id="GREEN_BACKGROUNDS">
  <g id="GREEN3">
   <linearGradient id="GREEN_3_1_" y1="88.9893" x1="48.0239" y2="9.0112" gradientUnits="userSpaceOnUse" x2="48.0239">
    <stop offset="0" style="stop-color:#C9E6A7"/>
    <stop offset="0.411" style="stop-color:#62B700"/>
    <stop offset="0.5151" style="stop-color:#58AE04"/>
    <stop offset="0.6911" style="stop-color:#3E970D"/>
    <stop offset="0.916" style="stop-color:#13711D"/>
    <stop offset="1" style="stop-color:#016123"/>
   </linearGradient>
   <path fill="url(#GREEN_3_1_)" fill-rule="evenodd" id="GREEN_3_2_" d="M8.023,48.989&#xd;&#xa;&#x9;&#x9;&#x9;c0,29.633,10.365,40,40,40c29.637,0,40-10.367,40-40c0-28.985-9.926-39.53-38.091-39.979h-3.817&#xd;&#xa;&#x9;&#x9;&#x9;C17.951,9.459,8.023,20.004,8.023,48.989z"/>
  </g>
 </g>
 <g id="PLACE_YOUR_GRAPHIC_HERE"/>
 <g id="DO_NOT_EDIT_-_FOCAL_ZONE_GUIDES_ONLY"/>
 <g id="Layer_9">
  <ellipse fill="none" cx="47.858" cy="46.384" rx="29.416" ry="29.344"/>
  <g>
   <ellipse fill="none" cx="47.858" cy="46.384" rx="29.416" ry="29.344"/>
   <path fill="none" d="M67.375,78.5c0.083-0.5,0.269-0.611,0.269-0.611l-1.507-1.495c0,0-0.682,0.552-1.232,0.61&#xd;&#xa;&#x9;&#x9;&#x9;c-0.737,0.079-1.067-0.301-1.067-0.301l-1.156-1.147c-12.128,7.518-28.294,6.065-38.86-4.414&#xd;&#xa;&#x9;&#x9;&#x9;c-9.807-9.728-11.874-24.346-6.186-36.145c1.521-3.615,3.736-7.005,6.663-9.956c12.259-12.358,32.284-12.44,44.643-0.182&#xd;&#xa;&#x9;&#x9;&#x9;c9.438,9.362,11.707,23.251,6.797,34.799c0.176-0.053,0.358-0.119,0.527-0.16c-0.498,1.008-1.047,1.996-1.638,2.966l0.593,0.587&#xd;&#xa;&#x9;&#x9;&#x9;c0,0-0.008,0.014-0.022,0.039l2.085,2.068l-1.235,1.245l1.507,1.494l0.669-0.675l5.807,5.76c2.779-5.983,3.993-13.86,3.993-23.993&#xd;&#xa;&#x9;&#x9;&#x9;c0-28.985-9.926-39.53-38.09-39.979h-3.818C17.951,9.459,8.023,20.004,8.023,48.989c0,29.633,10.365,40,40,40&#xd;&#xa;&#x9;&#x9;&#x9;c10.64,0,18.785-1.347,24.869-4.431l-5.288-5.245C67.604,79.313,67.292,79,67.375,78.5z"/>
   <path d="M84.03,72.982l-5.807-5.76l-0.669,0.675l-1.507-1.494l1.235-1.245l-2.085-2.068c0.015-0.025,0.022-0.039,0.022-0.039&#xd;&#xa;&#x9;&#x9;&#x9;l-0.593-0.587c0.591-0.97,1.14-1.958,1.638-2.966c-0.169,0.041-0.352,0.107-0.527,0.16c4.91-11.548,2.642-25.437-6.797-34.799&#xd;&#xa;&#x9;&#x9;&#x9;c-12.359-12.258-32.384-12.177-44.643,0.182c-2.927,2.951-5.142,6.341-6.663,9.956c-5.688,11.798-3.622,26.417,6.186,36.145&#xd;&#xa;&#x9;&#x9;&#x9;c10.566,10.479,26.732,11.932,38.86,4.414l1.156,1.147c0,0,0.33,0.38,1.067,0.301c0.551-0.059,1.232-0.61,1.232-0.61l1.507,1.495&#xd;&#xa;&#x9;&#x9;&#x9;c0,0-0.186,0.111-0.269,0.611s0.229,0.813,0.229,0.813l5.288,5.245C77.959,81.989,81.6,78.215,84.03,72.982z M47.858,75.729&#xd;&#xa;&#x9;&#x9;&#x9;c-16.246,0-29.416-13.139-29.416-29.345c0-16.207,13.169-29.344,29.416-29.344s29.415,13.138,29.415,29.344&#xd;&#xa;&#x9;&#x9;&#x9;C77.273,62.59,64.104,75.729,47.858,75.729z"/>
  </g>
 </g>
 <g id="Layer_8">
  <linearGradient id="SVGID_1_" y1="9.0103" x1="48.0229" y2="88.9897" gradientUnits="userSpaceOnUse" x2="48.0229">
   <stop offset="0" style="stop-color:#C9E6A7"/>
   <stop offset="0.411" style="stop-color:#62B700"/>
   <stop offset="0.5151" style="stop-color:#58AE04"/>
   <stop offset="0.6911" style="stop-color:#3E970D"/>
   <stop offset="0.916" style="stop-color:#13711D"/>
   <stop offset="1" style="stop-color:#016123"/>
  </linearGradient>
  <path fill="url(#SVGID_1_)" fill-rule="evenodd" d="M49.933,9.01h-3.817&#xd;&#xa;&#x9;&#x9;C17.951,9.458,8.023,20.003,8.023,48.989c0,29.632,10.365,40,40,40c29.637,0,40-10.368,40-40&#xd;&#xa;&#x9;&#x9;C88.023,20.003,78.098,9.458,49.933,9.01z M48.023,88.022c-29.158,0-39-9.847-39-39.023c0-29.176,9.842-39.023,39-39.023&#xd;&#xa;&#x9;&#x9;s39,9.847,39,39.023C87.023,78.176,77.182,88.022,48.023,88.022z"/>
  <linearGradient id="SVGID_2_" y1="15.6665" x1="47.7109" y2="78.8335" gradientUnits="userSpaceOnUse" x2="47.7109">
   <stop offset="0.5831" style="stop-color:#FFFFFF;stop-opacity:0"/>
   <stop offset="0.9288" style="stop-color:#347708"/>
  </linearGradient>
  <path fill="url(#SVGID_2_)" d="M47.711,17.391c-16.138,0-29.268,13.129-29.268,29.268s13.13,29.267,29.268,29.267&#xd;&#xa;&#x9;&#x9;c16.139,0,29.269-13.129,29.269-29.267S63.85,17.391,47.711,17.391z"/>
  <linearGradient id="SVGID_3_" y1="15.4692" x1="47.8584" y2="78.6363" gradientUnits="userSpaceOnUse" x2="47.8584">
   <stop offset="0.5831" style="stop-color:#FFFFFF;stop-opacity:0"/>
   <stop offset="0.9288" style="stop-color:#347708"/>
  </linearGradient>
  <path fill="url(#SVGID_3_)" d="M47.858,17.194c-16.138,0-29.268,13.129-29.268,29.268s13.13,29.267,29.268,29.267&#xd;&#xa;&#x9;&#x9;c16.139,0,29.269-13.129,29.269-29.267S63.997,17.194,47.858,17.194z"/>
 </g>
 <g id="Layer_9_copy_2">
  <g>
   <g>
    <g>
     <linearGradient id="SVGID_4_" y1="70.8574" x1="66.6123" y2="70.8574" gradientUnits="userSpaceOnUse" x2="78.4961">
      <stop offset="0" style="stop-color:#000000"/>
      <stop offset="0.5" style="stop-color:#666666"/>
      <stop offset="1" style="stop-color:#000000"/>
     </linearGradient>
     <path fill="url(#SVGID_4_)" d="M78.078,66.426c0.554,0.549,0.558,1.451,0.009,2.004l-7.914,7.979&#xd;&#xa;&#x9;&#x9;&#x9;&#x9;&#x9;c-0.549,0.553-1.451,0.557-2.004,0.008l-1.14-1.13c-0.553-0.549-0.557-1.451-0.008-2.004l7.914-7.979&#xd;&#xa;&#x9;&#x9;&#x9;&#x9;&#x9;c0.549-0.553,1.451-0.557,2.005-0.008L78.078,66.426z"/>
    </g>
    <g>
     <path fill="#333333" d="M69.465,69.96C57.207,82.317,37.18,82.399,24.821,70.142C12.463,57.884,12.382,37.856,24.64,25.498&#xd;&#xa;&#x9;&#x9;&#x9;&#x9;&#x9;c12.259-12.358,32.286-12.44,44.643-0.182C81.643,37.575,81.723,57.603,69.465,69.96z M27.48,27.521&#xd;&#xa;&#x9;&#x9;&#x9;&#x9;&#x9;c-10.705,10.792-10.634,28.282,0.158,38.987S55.92,77.143,66.625,66.35s10.635-28.282-0.158-38.987&#xd;&#xa;&#x9;&#x9;&#x9;&#x9;&#x9;C55.674,16.657,38.185,16.729,27.48,27.521z"/>
    </g>
    <g>
     <linearGradient gradientTransform="matrix(0.7042 -0.71 0.71 0.7042 -29.4894 0.8951)" id="SVGID_5_" y1="118.334" x1="13.3169" y2="118.334" gradientUnits="userSpaceOnUse" x2="30.9829">
      <stop offset="0" style="stop-color:#3A3A3A"/>
      <stop offset="0.5" style="stop-color:#FFFFFF"/>
      <stop offset="1" style="stop-color:#000000"/>
     </linearGradient>
     <path fill="url(#SVGID_5_)" d="M77.277,63.16c0.553,0.549,0.557,1.451,0.008,2.004L66.84,75.693&#xd;&#xa;&#x9;&#x9;&#x9;&#x9;&#x9;c-0.549,0.553-1.451,0.557-2.004,0.008l-1.869-1.854c-0.553-0.549-0.557-1.451-0.008-2.004l10.445-10.53&#xd;&#xa;&#x9;&#x9;&#x9;&#x9;&#x9;c0.549-0.553,1.451-0.557,2.004-0.008L77.277,63.16z"/>
    </g>
    <g>
     <linearGradient gradientTransform="matrix(0.7042 -0.71 0.71 0.7042 -29.4972 0.4473)" id="SVGID_6_" y1="33.5596" x1="-3.9434" y2="155.7283" gradientUnits="userSpaceOnUse" x2="54.8906">
      <stop offset="0.2454" style="stop-color:#FFFFFF"/>
      <stop offset="0.3336" style="stop-color:#CCCCCC"/>
      <stop offset="0.4507" style="stop-color:#8F8F8F"/>
      <stop offset="0.5633" style="stop-color:#5C5C5C"/>
      <stop offset="0.6682" style="stop-color:#343434"/>
      <stop offset="0.7637" style="stop-color:#171717"/>
      <stop offset="0.8467" style="stop-color:#060606"/>
      <stop offset="0.908" style="stop-color:#000000"/>
     </linearGradient>
     <path fill="url(#SVGID_6_)" d="M70.123,68.504c-12.258,12.357-32.285,12.439-44.644,0.181&#xd;&#xa;&#x9;&#x9;&#x9;&#x9;&#x9;C13.121,56.426,13.04,36.399,25.298,24.041s32.284-12.44,44.643-0.182C82.301,36.118,82.381,56.145,70.123,68.504z&#xd;&#xa;&#x9;&#x9;&#x9;&#x9;&#x9; M28.138,26.858C17.433,37.65,17.503,55.14,28.295,65.845c10.793,10.706,28.283,10.634,38.988-0.158S77.916,37.405,67.125,26.7&#xd;&#xa;&#x9;&#x9;&#x9;&#x9;&#x9;C56.332,15.995,38.842,16.066,28.138,26.858z"/>
    </g>
    <g>
     <path fill="#1C1C1C" d="M76.221,62.051l-1.203-1.191L62.576,73.402l1.203,1.193c0,0,3.35-1.902,6.959-5.541&#xd;&#xa;&#x9;&#x9;&#x9;&#x9;&#x9;S76.221,62.051,76.221,62.051z"/>
    </g>
    <path fill="none" stroke="#FFFFFF" stroke-width="0.5" d="M27.458,26.124&#xd;&#xa;&#x9;&#x9;&#x9;&#x9;c-11.094,11.184-11.021,29.308,0.164,40.401c11.184,11.094,29.306,11.02,40.4-0.164c11.094-11.185,11.021-29.308-0.164-40.401&#xd;&#xa;&#x9;&#x9;&#x9;&#x9;C56.674,14.867,38.551,14.94,27.458,26.124z" stroke-miterlimit="10"/>
    <g>
     <path fill="#333333" d="M60.178,75.729c3.592-1.814,6.959-4.215,9.945-7.225c2.984-3.01,5.359-6.398,7.143-10.006&#xd;&#xa;&#x9;&#x9;&#x9;&#x9;&#x9;c-2.924,0.707-6.816,3.143-10.408,6.766C63.264,68.886,60.859,72.8,60.178,75.729z"/>
    </g>
    <g>
     <linearGradient gradientTransform="matrix(0.7042 -0.71 0.71 0.7042 -29.4972 0.4473)" id="SVGID_7_" y1="107.4404" x1="17.4771" y2="133.0346" gradientUnits="userSpaceOnUse" x2="29.8027">
      <stop offset="0.0859" style="stop-color:#FFFFFF"/>
      <stop offset="1" style="stop-color:#000000"/>
     </linearGradient>
     <path fill="url(#SVGID_7_)" d="M61.732,74.078c2.939-1.485,5.697-3.451,8.141-5.916c2.445-2.463,4.389-5.236,5.848-8.189&#xd;&#xa;&#x9;&#x9;&#x9;&#x9;&#x9;c-2.393,0.576-5.58,2.572-8.521,5.537C64.258,68.476,62.289,71.681,61.732,74.078z"/>
    </g>
   </g>
   <linearGradient id="SVGID_8_" y1="-31.5" x1="47.5356" y2="78.0899" gradientUnits="userSpaceOnUse" x2="47.5356">
    <stop offset="0" style="stop-color:#FFFFFF;stop-opacity:0"/>
    <stop offset="0.8297" style="stop-color:#FFFFFF;stop-opacity:0.6807"/>
    <stop offset="0.9141" style="stop-color:#FFFFFF;stop-opacity:0.75"/>
    <stop offset="1" style="stop-color:#FFFFFF"/>
   </linearGradient>
   <path fill="url(#SVGID_8_)" d="M20.336,43.057c7.435,2.981,15.839,4.673,24.748,4.673c10.932,0,21.105-2.54,29.652-6.898&#xd;&#xa;&#x9;&#x9;&#x9;C72.203,28.228,61.049,18.705,47.71,18.705C33.598,18.705,21.935,29.366,20.336,43.057z"/>
  </g>
  <g>
   <linearGradient gradientTransform="matrix(0.7042 -0.71 0.71 0.7042 -29.4972 0.4473)" id="SVGID_9_" y1="128.3848" x1="13.7983" y2="128.3848" gradientUnits="userSpaceOnUse" x2="29.8618">
    <stop offset="0" style="stop-color:#000000"/>
    <stop offset="0.5" style="stop-color:#FFFFFF"/>
    <stop offset="1" style="stop-color:#3A3A3A"/>
   </linearGradient>
   <path fill="url(#SVGID_9_)" d="M84.68,71.635l-4.45-4.414c-0.553-0.549-1.455-0.545-2.004,0.008l-9.316,9.393&#xd;&#xa;&#x9;&#x9;&#x9;c-0.549,0.553-0.545,1.455,0.008,2.004l5.3,5.257C79.038,81.108,82.449,77.106,84.68,71.635z"/>
  </g>
  <g>
   <linearGradient gradientTransform="matrix(0.7042 -0.71 0.71 0.7042 -29.4972 0.4473)" id="SVGID_10_" y1="204.9941" x1="21.8735" y2="49.5984" gradientUnits="userSpaceOnUse" x2="21.8735">
    <stop offset="0" style="stop-color:#3A3A3A"/>
    <stop offset="0.5" style="stop-color:#FFFFFF"/>
    <stop offset="1" style="stop-color:#3A3A3A"/>
   </linearGradient>
   <path fill="url(#SVGID_10_)" d="M83.412,74.346l-0.979-0.971c-2.027-2.012-5.301-1.998-7.311,0.029&#xd;&#xa;&#x9;&#x9;&#x9;c-2.012,2.027-1.998,5.301,0.029,7.312l1.555,1.542C79.494,80.176,81.704,77.555,83.412,74.346z"/>
  </g>
  <g>
   <linearGradient gradientTransform="matrix(0.7042 -0.71 0.71 0.7042 -29.4972 0.4473)" id="SVGID_11_" y1="117.3193" x1="21.8315" y2="182.3343" gradientUnits="userSpaceOnUse" x2="21.8315">
    <stop offset="0" style="stop-color:#FFFFFF"/>
    <stop offset="0.0587" style="stop-color:#CFCFCF"/>
    <stop offset="0.1237" style="stop-color:#A2A2A2"/>
    <stop offset="0.1892" style="stop-color:#7D7D7D"/>
    <stop offset="0.2541" style="stop-color:#5F5F5F"/>
    <stop offset="0.3182" style="stop-color:#4B4B4B"/>
    <stop offset="0.3812" style="stop-color:#3E3E3E"/>
    <stop offset="0.4417" style="stop-color:#3A3A3A"/>
   </linearGradient>
   <path fill="url(#SVGID_11_)" d="M83.306,74.554l-0.685-0.679c-1.955-1.939-5.113-1.928-7.055,0.028&#xd;&#xa;&#x9;&#x9;&#x9;c-1.939,1.956-1.926,5.114,0.029,7.056l1.222,1.212C79.492,80.146,81.637,77.627,83.306,74.554z"/>
  </g>
 </g>
 <g id="Layer_12"/>
 <g id="Layer_10">
  <path fill="#FFFFFF" d="M48.739,65.98c-1.197,0-2.217-0.725-2.783-1.982c-0.312-0.693-0.51-1.307-0.438-1.363&#xd;&#xa;&#x9;&#x9;c0.072-0.055,0.82-0.494,1.662-0.977c4.176-2.391,6.048-7.756,6.06-17.366c0.014-11.56-2.896-17.039-9.796-18.445&#xd;&#xa;&#x9;&#x9;c-2.171-0.442-4.632-0.205-6.562,0.633c-2.885,1.251-5.082,4.601-6.163,9.396c-0.77,3.41-0.76,12.746,0.016,16.347&#xd;&#xa;&#x9;&#x9;c1.139,5.282,3.825,9.196,7.05,10.271c1.194,0.4,1.361,0.596,1.863,2.203c0.781,2.504,1.478,3.719,2.59,4.51&#xd;&#xa;&#x9;&#x9;s3.313,1.318,4.668,1.119c0.511-0.076,1.275-0.139,1.698-0.139c0.731,0,0.77-0.104,0.77-2.102&#xd;&#xa;&#x9;&#x9;C49.373,66.213,49.303,65.98,48.739,65.98z M41.285,58.113c-0.987-0.492-2.172-2.213-2.584-3.755&#xd;&#xa;&#x9;&#x9;c-1.349-5.036-1.235-17.51,0.19-21.076c0.648-1.619,2.145-2.91,3.373-2.91c1.36,0,3.071,1.641,3.707,3.554&#xd;&#xa;&#x9;&#x9;c1.125,3.385,1.313,14.744,0.326,19.52C45.512,57.242,43.43,59.182,41.285,58.113z"/>
  <path fill="#FFFFFF" d="M62.743,60.463c3.062-0.682,3.236-0.832,3.236-2.799c0-1.527-0.076-1.74-0.566-1.594&#xd;&#xa;&#x9;&#x9;c-1.941,0.576-2.394,0.581-3.007,0.025c-0.599-0.542-0.635-1.043-0.635-8.94V38.79h1.941h1.942v-1.901v-1.9l-1.942-0.219&#xd;&#xa;&#x9;&#x9;l-1.941-0.221V31.51c0-1.672-0.109-3.107-0.242-3.188s-0.961-0.199-1.837-0.263l-1.595-0.113l-0.556,2.266&#xd;&#xa;&#x9;&#x9;c-0.304,1.246-0.646,2.666-0.759,3.156c-0.175,0.761-0.365,0.891-1.33,0.891h-1.126v2.104v2.104h0.97h0.973v9.4&#xd;&#xa;&#x9;&#x9;c0,11.485,0.128,11.927,3.722,12.716C61.024,60.811,61.206,60.803,62.743,60.463L62.743,60.463z"/>
  <path fill="#016123" id="path2398_1_" d="M41.857,70.125c-1.53-0.406-3.226-2.264-3.961-4.338c-0.31-0.873-0.679-1.889-0.819-2.254&#xd;&#xa;&#x9;&#x9;c-0.155-0.398-0.782-0.822-1.564-1.057c-2.895-0.869-5.596-4.76-6.769-9.754c-0.843-3.586-0.818-14.449,0.038-17.656&#xd;&#xa;&#x9;&#x9;c1.312-4.905,3.803-8.085,7.101-9.064c2.127-0.632,3.425-0.595,1.618,0.045c-3.044,1.079-5.284,4.016-6.641,8.705&#xd;&#xa;&#x9;&#x9;c-0.679,2.345-0.744,3.201-0.723,9.378c0.021,5.868,0.118,7.137,0.707,9.275c1.327,4.817,3.323,7.587,6.507,9.024&#xd;&#xa;&#x9;&#x9;c1.462,0.662,1.715,0.92,2.023,2.07c0.738,2.738,2.203,4.727,4.105,5.572c0.698,0.309,0.744,0.387,0.228,0.381&#xd;&#xa;&#x9;&#x9;C43.353,70.447,42.52,70.301,41.857,70.125L41.857,70.125z M57.172,60.377c-2.551-0.893-2.944-2.716-2.944-13.677&#xd;&#xa;&#x9;&#x9;c0-7.392-0.052-8.197-0.54-8.291c-0.377-0.073-0.661-0.695-0.934-2.047c-0.216-1.068-0.329-2.052-0.25-2.185&#xd;&#xa;&#x9;&#x9;c0.08-0.134,0.499-0.243,0.934-0.243c0.763,0,0.79,0.079,0.79,2.266v2.266h0.953h0.954l0.098,9.468&#xd;&#xa;&#x9;&#x9;c0.11,10.509,0.192,10.947,2.3,12.232c0.809,0.494,0.895,0.629,0.389,0.615C58.564,60.773,57.778,60.59,57.172,60.377z&#xd;&#xa;&#x9;&#x9; M42.335,57.321c1.826-1.907,2.506-5.497,2.506-13.24c0-7.412-0.884-11.635-2.701-12.909c-0.661-0.462-0.651-0.476,0.319-0.476&#xd;&#xa;&#x9;&#x9;c3.313,0,4.55,4.582,4.233,15.7c-0.175,6.181-0.58,8.62-1.724,10.365c-0.524,0.802-1.774,1.451-2.793,1.451&#xd;&#xa;&#x9;&#x9;C41.507,58.213,41.512,58.182,42.335,57.321L42.335,57.321z M63.453,55.945c0.356-0.152,1.085-0.278,1.619-0.278&#xd;&#xa;&#x9;&#x9;c0.828,0,0.875,0.042,0.323,0.278c-0.355,0.153-1.084,0.279-1.618,0.279C62.949,56.225,62.902,56.183,63.453,55.945z M54.972,33.53&#xd;&#xa;&#x9;&#x9;c1.415-6.19,1.239-5.746,2.267-5.746c0.821,0,0.924,0.097,0.762,0.717c-0.103,0.395-0.433,1.851-0.731,3.237&#xd;&#xa;&#x9;&#x9;c-0.531,2.455-0.569,2.521-1.505,2.521C54.937,34.258,54.827,34.158,54.972,33.53L54.972,33.53z"/>
 </g>
 <g id="Layer_8_copy">
  <linearGradient id="SVGID_12_" y1="9.0103" x1="48.0229" y2="88.9897" gradientUnits="userSpaceOnUse" x2="48.0229">
   <stop offset="0" style="stop-color:#C9E6A7"/>
   <stop offset="0.411" style="stop-color:#62B700"/>
   <stop offset="0.5151" style="stop-color:#58AE04"/>
   <stop offset="0.6911" style="stop-color:#3E970D"/>
   <stop offset="0.916" style="stop-color:#13711D"/>
   <stop offset="1" style="stop-color:#016123"/>
  </linearGradient>
  <path fill="url(#SVGID_12_)" fill-rule="evenodd" d="M49.933,9.01h-3.817&#xd;&#xa;&#x9;&#x9;C17.951,9.458,8.023,20.003,8.023,48.989c0,29.632,10.365,40,40,40c29.637,0,40-10.368,40-40&#xd;&#xa;&#x9;&#x9;C88.023,20.003,78.098,9.458,49.933,9.01z M48.023,88.022c-29.158,0-39-9.847-39-39.023c0-29.176,9.842-39.023,39-39.023&#xd;&#xa;&#x9;&#x9;s39,9.847,39,39.023C87.023,78.176,77.182,88.022,48.023,88.022z"/>
 </g>
</svg>
